<?xml version="1.0" encoding="UTF-8"?>
<svg width="833px" height="101px" viewBox="0 0 833 101" version="1.1" xmlns="http://www.w3.org/2000/svg" xmlns:xlink="http://www.w3.org/1999/xlink">
    <!-- Generator: Sketch 47 (45396) - http://www.bohemiancoding.com/sketch -->
    <title>Cognitive_Scale_Tagline_Horizontal_White_No Tagline</title>
    <desc>Created with Sketch.</desc>
    <defs>
        <polygon id="path-1" points="6.32928226e-14 91.2516398 6.32928226e-14 0.597127351 832.233 0.597127351 832.233 91.2516398"></polygon>
        <polygon id="path-3" points="0.886 70.94 92.069 70.94 92.069 0.92 0.886 0.92"></polygon>
    </defs>
    <g id="Page-1" stroke="none" stroke-width="1" fill="none" fill-rule="evenodd">
        <g id="Cognitive_Scale_Tagline_Horizontal_White_No-Tagline">
            <polyline id="Fill-1" fill="#FFFFFE" points="816.668 10.216 822.915 10.216 822.915 11.384 820.462 11.384 820.462 17.932 819.111 17.932 819.111 11.384 816.668 11.384 816.668 10.216"></polyline>
            <g id="Group-7">
                <mask id="mask-2" fill="white">
                    <use xlink:href="#path-1"></use>
                </mask>
                <g id="Clip-3"></g>
                <polyline id="Fill-2" fill="#FFFFFE" mask="url(#mask-2)" points="824.223 10.216 826.126 10.216 828.254 16.258 828.278 16.258 830.352 10.216 832.233 10.216 832.233 17.932 830.945 17.932 830.945 11.978 830.925 11.978 828.784 17.932 827.671 17.932 825.531 11.978 825.51 11.978 825.51 17.932 824.223 17.932 824.223 10.216"></polyline>
                <path d="M53.01,68.405 C8.134,89.274 14.334,20.818 59.187,51.541 C30.371,15.882 -10.298,48.381 9.099,81.253 C13.343,85.435 19.118,88.617 26.507,90.142 C40.821,93.102 51.315,89.921 63.988,83.204 C79.124,75.165 95.88,61.208 113.787,50.879 C117.388,48.419 120.844,47.08 123.997,46.591 C126.544,46.193 128.897,46.347 131.009,46.91 C153.668,50.832 155.505,82.573 134.86,90.471 C140.299,89.973 145.008,88.265 150.149,82.822 C163.948,68.233 166.257,35.58 136.502,26.583 C126.378,23.754 110.44,27.887 92.444,42.044 C79.926,51.893 67.462,61.681 53.01,68.405" id="Fill-4" fill="#FFFFFE" mask="url(#mask-2)"></path>
                <path d="M118.463,20.402 C99.95,-9.233 48.063,-6.333 59.187,51.541 C55.612,14.421 94.288,10.299 105.038,26.953 C106.806,25.201 115.553,20.623 118.463,20.402" id="Fill-5" fill="#FFFFFE" mask="url(#mask-2)"></path>
                <path d="M9.071,81.217 C-12.148,60.276 4.857,14.213 49.647,23.416 C63.078,-7.497 102.811,-5.512 118.463,20.402 C99.95,-9.233 48.063,-6.333 59.187,51.541 C30.386,15.896 -10.261,48.352 9.071,81.217" id="Fill-6" fill="#9E9F9E" mask="url(#mask-2)"></path>
            </g>
            <path d="M131.009,46.91 C130.76,46.843 130.525,46.787 130.282,46.732 C144.033,49.726 147.87,69.938 124.886,70.885 C115.134,71.288 105.097,70.885 95.338,70.885 C91.391,75.039 69.507,88.873 65.392,90.773 C64.625,91.12 64.319,91.254 64.319,91.254 C64.319,91.254 107.285,91.254 120.649,91.254 C128.57,91.254 131.312,91.2 134.86,90.471 L134.851,90.465 C134.86,90.465 134.865,90.465 134.873,90.465 C155.505,82.57 153.664,50.832 131.009,46.91" id="Fill-8" fill="#9E9F9E"></path>
            <path d="M236.722,35.155 L230.392,35.155 L228.708,25.774 C227.251,24.347 225.459,23.179 223.334,22.268 C221.209,21.357 218.674,20.902 215.73,20.902 C208.838,20.902 203.541,23.399 199.838,28.393 C196.134,33.387 194.282,39.724 194.282,47.404 L194.282,48.451 C194.282,56.132 196.096,62.484 199.724,67.509 C203.351,72.533 208.383,75.045 214.819,75.045 C217.824,75.045 220.557,74.574 223.016,73.633 C225.474,72.692 227.371,71.538 228.708,70.172 L230.392,60.792 L236.722,60.792 L236.722,72.586 C234.809,75.045 231.941,77.238 228.115,79.166 C224.291,81.094 219.858,82.057 214.819,82.057 C206.197,82.057 199.124,78.869 193.599,72.494 C188.074,66.119 185.312,58.105 185.312,48.451 L185.312,47.495 C185.312,37.781 188.028,29.744 193.463,23.384 C198.897,17.024 206.015,13.845 214.819,13.845 C219.858,13.845 224.291,14.823 228.115,16.781 C231.941,18.739 234.809,20.932 236.722,23.361 L236.722,35.155" id="Fill-9" fill="#FFFFFE"></path>
            <g id="Group-13" transform="translate(243.000000, 30.000000)">
                <mask id="mask-4" fill="white">
                    <use xlink:href="#path-3"></use>
                </mask>
                <g id="Clip-11"></g>
                <path d="M9.857,27.013 C9.857,32.234 10.957,36.545 13.158,39.944 C15.359,43.345 18.63,45.045 22.971,45.045 C27.221,45.045 30.454,43.345 32.671,39.944 C34.886,36.545 35.995,32.234 35.995,27.013 L35.995,26.011 C35.995,20.849 34.886,16.555 32.671,13.124 C30.454,9.693 27.191,7.978 22.881,7.978 C18.569,7.978 15.321,9.693 13.135,13.124 C10.95,16.555 9.857,20.849 9.857,26.011 L9.857,27.013 Z M0.886,26.011 C0.886,18.724 2.86,12.722 6.806,8.001 C10.752,3.281 16.111,0.92 22.881,0.92 C29.68,0.92 35.061,3.273 39.023,7.978 C42.985,12.684 44.965,18.695 44.965,26.011 L44.965,27.013 C44.965,34.359 42.991,40.37 39.046,45.045 C35.099,49.72 29.74,52.057 22.971,52.057 C16.141,52.057 10.752,49.712 6.806,45.021 C2.86,40.332 0.886,34.329 0.886,27.013 L0.886,26.011 L0.886,26.011 Z" id="Fill-10" fill="#FFFFFE" mask="url(#mask-4)"></path>
                <path d="M59.101,28.333 C59.101,33.281 60.148,37.258 62.243,40.264 C64.338,43.268 67.525,44.771 71.805,44.771 C74.507,44.771 76.769,44.156 78.59,42.927 C80.411,41.697 81.914,39.96 83.098,37.713 L83.098,15.036 C81.944,12.941 80.442,11.279 78.59,10.05 C76.738,8.82 74.507,8.206 71.896,8.206 C67.616,8.206 64.413,9.997 62.288,13.579 C60.163,17.162 59.101,21.761 59.101,27.377 L59.101,28.333 Z M50.13,27.377 C50.13,19.453 51.861,13.063 55.321,8.206 C58.782,3.349 63.563,0.92 69.665,0.92 C72.761,0.92 75.478,1.528 77.816,2.741 C80.153,3.956 82.111,5.717 83.69,8.023 L84.51,1.831 L92.069,1.831 L92.069,50.463 C92.069,56.838 90.293,61.854 86.741,65.513 C83.189,69.171 78.135,71 71.578,71 C69.21,71 66.644,70.674 63.882,70.021 C61.119,69.368 58.691,68.479 56.596,67.357 L58.919,60.391 C60.588,61.27 62.561,61.999 64.838,62.576 C67.115,63.152 69.331,63.441 71.486,63.441 C75.494,63.441 78.431,62.317 80.298,60.071 C82.165,57.824 83.098,54.622 83.098,50.463 L83.098,45.773 C81.489,47.838 79.561,49.401 77.315,50.463 C75.068,51.525 72.488,52.057 69.574,52.057 C63.533,52.057 58.782,49.871 55.321,45.5 C51.861,41.129 50.13,35.406 50.13,28.333 L50.13,27.377 L50.13,27.377 Z" id="Fill-12" fill="#FFFFFE" mask="url(#mask-4)"></path>
            </g>
            <path d="M342.87,75.363 L350.293,74.088 L350.293,38.889 L342.87,37.614 L342.87,31.831 L358.307,31.831 L358.944,39.162 C360.584,36.552 362.64,34.525 365.115,33.083 C367.589,31.641 370.404,30.92 373.562,30.92 C378.874,30.92 382.987,32.476 385.902,35.588 C388.816,38.7 390.274,43.504 390.274,50 L390.274,74.088 L397.696,75.363 L397.696,81.101 L373.881,81.101 L373.881,75.363 L381.303,74.088 L381.303,50.181 C381.303,45.841 380.445,42.76 378.73,40.938 C377.015,39.117 374.396,38.206 370.875,38.206 C368.295,38.206 366.01,38.828 364.022,40.073 C362.033,41.318 360.447,43.018 359.263,45.173 L359.263,74.088 L366.686,75.363 L366.686,81.101 L342.87,81.101 L342.87,75.363" id="Fill-14" fill="#FFFFFE"></path>
            <path d="M409.298,19.217 L418.269,19.217 L418.269,10.064 L409.298,10.064 L409.298,19.217 Z M401.876,75.363 L409.298,74.088 L409.298,38.889 L401.876,37.614 L401.876,31.831 L418.269,31.831 L418.269,74.088 L425.692,75.363 L425.692,81.101 L401.876,81.101 L401.876,75.363 L401.876,75.363 Z" id="Fill-15" fill="#FFFFFE"></path>
            <path d="M445.948,19.946 L445.948,31.831 L455.282,31.831 L455.282,38.479 L445.948,38.479 L445.948,68.396 C445.948,70.704 446.426,72.328 447.382,73.268 C448.339,74.21 449.606,74.681 451.185,74.681 C451.974,74.681 452.861,74.612 453.849,74.476 C454.834,74.339 455.662,74.195 456.33,74.043 L457.56,80.19 C456.709,80.736 455.465,81.183 453.825,81.533 C452.187,81.882 450.547,82.057 448.907,82.057 C445.265,82.057 442.365,80.957 440.21,78.756 C438.055,76.555 436.978,73.102 436.978,68.396 L436.978,38.479 L429.191,38.479 L429.191,31.831 L436.978,31.831 L436.978,19.946 L445.948,19.946" id="Fill-16" fill="#FFFFFE"></path>
            <path d="M471.177,19.217 L480.148,19.217 L480.148,10.064 L471.177,10.064 L471.177,19.217 Z M463.754,75.363 L471.177,74.088 L471.177,38.889 L463.754,37.614 L463.754,31.831 L480.148,31.831 L480.148,74.088 L487.569,75.363 L487.569,81.101 L463.754,81.101 L463.754,75.363 L463.754,75.363 Z" id="Fill-17" fill="#FFFFFE"></path>
            <polyline id="Fill-18" fill="#FFFFFE" points="507.778 37.614 501.859 38.524 512.013 66.575 512.833 70.127 513.107 70.127 513.972 66.575 523.808 38.524 517.841 37.614 517.841 31.831 536.876 31.831 536.876 37.614 532.823 38.297 516.294 81.101 509.509 81.101 492.797 38.297 488.744 37.614 488.744 31.831 507.778 31.831 507.778 37.614"></polyline>
            <path d="M560.927,37.978 C557.921,37.978 555.357,39.246 553.232,41.78 C551.107,44.315 549.8,47.495 549.316,51.32 L549.407,51.548 L572.128,51.548 L572.128,50.364 C572.128,46.843 571.187,43.898 569.306,41.53 C567.423,39.162 564.63,37.978 560.927,37.978 Z M562.294,82.057 C555.433,82.057 549.976,79.773 545.923,75.204 C541.87,70.636 539.845,64.708 539.845,57.422 L539.845,55.419 C539.845,48.406 541.931,42.57 546.105,37.91 C550.279,33.25 555.22,30.92 560.927,30.92 C567.544,30.92 572.562,32.924 575.978,36.931 C579.392,40.938 581.099,46.281 581.099,52.96 L581.099,58.56 L549.134,58.56 L548.997,58.788 C549.087,63.524 550.286,67.417 552.595,70.468 C554.902,73.519 558.134,75.045 562.294,75.045 C565.329,75.045 567.991,74.612 570.284,73.747 C572.577,72.882 574.558,71.69 576.228,70.172 L579.734,76.001 C577.972,77.701 575.642,79.136 572.743,80.304 C569.845,81.473 566.361,82.057 562.294,82.057 L562.294,82.057 Z" id="Fill-19" fill="#FFFFFE"></path>
            <path d="M619.978,43.156 C614.335,41.738 610.218,40.087 607.74,38.246 C605.391,36.502 604.249,34.403 604.249,31.831 C604.249,28.879 605.377,26.551 607.696,24.715 C610.053,22.848 613.536,21.902 618.05,21.902 C620.933,21.902 623.492,22.268 625.655,22.989 C627.651,23.654 629.284,24.481 630.517,25.45 L632.284,35.381 L640.905,35.381 L640.905,21.623 L640.608,21.329 C638.222,18.973 635.029,16.95 631.117,15.312 C627.202,13.675 622.805,12.845 618.05,12.845 C610.809,12.845 604.825,14.655 600.266,18.225 C595.629,21.853 593.279,26.477 593.279,31.968 C593.279,37.175 595.393,41.556 599.563,44.989 C603.611,48.321 609.278,50.87 616.403,52.565 C621.98,53.916 625.893,55.578 628.035,57.505 C630.112,59.373 631.12,61.624 631.12,64.389 C631.12,67.355 629.966,69.638 627.592,71.367 C625.152,73.143 621.741,74.045 617.456,74.045 C614.257,74.045 611.481,73.607 609.206,72.744 C607.048,71.924 605.155,70.877 603.574,69.627 L601.762,59.655 L593.189,59.655 L593.189,73.386 L593.453,73.673 C596.028,76.468 599.4,78.757 603.476,80.474 C607.543,82.187 612.246,83.056 617.456,83.056 C624.687,83.056 630.642,81.35 635.154,77.986 C639.757,74.554 642.091,69.948 642.091,64.298 C642.091,59.055 640.153,54.595 636.33,51.043 C632.592,47.572 627.089,44.919 619.978,43.156" id="Fill-20" fill="#FFFFFE"></path>
            <path d="M680.019,64.527 L680.019,65.527 C680.019,67.902 679.029,69.86 676.995,71.514 C674.899,73.217 672.535,74.045 669.771,74.045 C665.373,74.045 662.347,72.558 660.52,69.5 C658.619,66.319 657.655,62.256 657.655,57.422 L657.655,55.51 C657.655,50.798 658.627,46.78 660.544,43.567 C662.384,40.479 665.403,38.978 669.771,38.978 C671.734,38.978 673.514,39.278 675.061,39.869 C676.489,40.414 677.684,41.12 678.617,41.968 L680.695,50.18 L689.66,50.18 L689.197,37.85 L688.953,37.58 C686.798,35.203 684.051,33.31 680.787,31.954 C677.535,30.604 673.829,29.92 669.771,29.92 C662.355,29.92 656.577,32.412 652.601,37.326 C648.677,42.177 646.687,48.294 646.687,55.51 L646.687,57.422 C646.687,64.698 648.668,70.839 652.577,75.674 C656.537,80.572 662.322,83.056 669.771,83.056 C675.21,83.056 680.045,81.315 684.142,77.883 C688.304,74.396 690.332,70.319 690.168,65.764 L689.796,64.527 L680.019,64.527" id="Fill-21" fill="#FFFFFE"></path>
            <path d="M709.346,62.485 C711.296,60.937 714.021,60.152 717.445,60.152 L726.007,60.152 L726.007,67.002 C725.026,68.739 723.417,70.265 721.222,71.538 C718.93,72.869 716.357,73.544 713.573,73.544 C711.129,73.544 709.309,73.05 708.165,72.075 C707.054,71.127 706.513,69.76 706.513,67.895 C706.513,65.769 707.44,64 709.346,62.485 Z M736.999,73.015 C736.984,72.416 736.978,71.803 736.978,71.174 L736.978,47.45 C736.978,41.849 735.109,37.469 731.422,34.429 C727.792,31.436 723.013,29.92 717.216,29.92 C713.394,29.92 709.794,30.481 706.515,31.59 C703.233,32.698 700.387,34.202 698.06,36.057 L697.683,36.358 L697.683,47.402 L706.437,47.402 L707.484,41.725 C708.404,40.928 709.602,40.278 711.046,39.792 C712.653,39.252 714.544,38.978 716.669,38.978 C719.643,38.978 721.973,39.739 723.595,41.24 C725.218,42.741 726.007,44.743 726.007,47.358 L726.007,52.097 L717.763,52.097 C711.004,52.097 705.585,53.432 701.655,56.068 C697.599,58.789 695.542,62.707 695.542,67.713 C695.542,72.533 696.997,76.341 699.866,79.03 C702.717,81.702 706.885,83.056 712.253,83.056 C715.359,83.056 718.32,82.269 721.057,80.719 C723.019,79.606 724.762,78.271 726.261,76.737 C726.297,77.041 726.337,77.345 726.38,77.645 C726.535,78.723 726.753,79.954 727.029,81.301 L727.193,82.1 L740.757,82.1 L740.757,74.491 L737.043,73.98 C737.022,73.663 737.007,73.341 736.999,73.015 L736.999,73.015 Z" id="Fill-22" fill="#FFFFFE"></path>
            <polyline id="Fill-23" fill="#FFFFFE" points="763.089 9.064 744.696 9.064 744.696 16.69 752.118 17.966 752.118 73.245 744.696 74.52 744.696 82.1 770.513 82.1 770.513 74.52 763.089 73.245 763.089 9.064"></polyline>
            <path d="M794.359,38.978 C797.773,38.978 800.256,40.016 801.952,42.152 C803.683,44.328 804.56,47.091 804.56,50.364 L804.56,50.548 L783.869,50.548 C784.41,47.326 785.606,44.597 787.428,42.423 C789.371,40.105 791.638,38.978 794.359,38.978 Z M815.53,52.96 C815.53,46.067 813.727,40.456 810.168,36.282 C806.57,32.06 801.25,29.92 794.359,29.92 C788.381,29.92 783.144,32.384 778.791,37.243 C774.467,42.071 772.275,48.186 772.275,55.419 L772.275,57.422 C772.275,64.926 774.405,71.132 778.607,75.867 C782.835,80.638 788.595,83.056 795.724,83.056 C799.902,83.056 803.543,82.442 806.549,81.231 C809.554,80.02 812.014,78.502 813.859,76.72 L814.43,76.167 L809.886,68.612 L808.985,69.432 C807.417,70.857 805.526,71.995 803.362,72.811 C801.194,73.63 798.624,74.045 795.724,74.045 C791.861,74.045 788.948,72.678 786.822,69.864 C784.784,67.17 783.653,63.706 783.453,59.56 L815.53,59.56 L815.53,52.96 L815.53,52.96 Z" id="Fill-24" fill="#FFFFFE"></path>
        </g>
    </g>
</svg>